<?xml version="1.0" encoding="UTF-8" standalone="no"?>
<!-- Created with Inkscape (http://www.inkscape.org/) -->

<svg
   xmlns:dc="http://purl.org/dc/elements/1.1/"
   xmlns:cc="http://creativecommons.org/ns#"
   xmlns:rdf="http://www.w3.org/1999/02/22-rdf-syntax-ns#"
   xmlns:svg="http://www.w3.org/2000/svg"
   xmlns="http://www.w3.org/2000/svg"
   xmlns:sodipodi="http://sodipodi.sourceforge.net/DTD/sodipodi-0.dtd"
   xmlns:inkscape="http://www.inkscape.org/namespaces/inkscape"
   width="640"
   height="640"
   viewBox="0 0 169.33333 169.33334"
   version="1.1"
   id="svg8"
   inkscape:version="0.92.4 (5da689c313, 2019-01-14)"
   sodipodi:docname="background-image.svg">
  <defs
     id="defs2">
    <inkscape:path-effect
       is_visible="true"
       id="path-effect863"
       effect="spiro" />
    <inkscape:path-effect
       effect="bspline"
       id="path-effect880"
       is_visible="true"
       weight="33.333333"
       steps="2"
       helper_size="0"
       apply_no_weight="true"
       apply_with_weight="true"
       only_selected="false" />
    <inkscape:path-effect
       effect="bspline"
       id="path-effect876"
       is_visible="true"
       weight="33.333333"
       steps="2"
       helper_size="0"
       apply_no_weight="true"
       apply_with_weight="true"
       only_selected="false" />
    <inkscape:path-effect
       effect="spiro"
       id="path-effect827"
       is_visible="true" />
  </defs>
  <sodipodi:namedview
     id="base"
     pagecolor="#ffffff"
     bordercolor="#666666"
     borderopacity="1.0"
     inkscape:pageopacity="0.0"
     inkscape:pageshadow="2"
     inkscape:zoom="0.98994949"
     inkscape:cx="403.86658"
     inkscape:cy="360.06706"
     inkscape:document-units="mm"
     inkscape:current-layer="layer1"
     showgrid="false"
     inkscape:snap-object-midpoints="true"
     inkscape:snap-center="true"
     inkscape:object-paths="true"
     inkscape:snap-intersection-paths="true"
     inkscape:snap-smooth-nodes="true"
     inkscape:snap-midpoints="true"
     inkscape:window-width="1920"
     inkscape:window-height="1017"
     inkscape:window-x="-8"
     inkscape:window-y="-8"
     inkscape:window-maximized="1"
     inkscape:object-nodes="true"
     inkscape:lockguides="true"
     inkscape:snap-text-baseline="false"
     inkscape:pagecheckerboard="true"
     inkscape:snap-page="true"
     inkscape:snap-nodes="false"
     inkscape:snap-bbox="true"
     inkscape:bbox-paths="true"
     inkscape:bbox-nodes="true"
     inkscape:snap-bbox-edge-midpoints="true"
     inkscape:snap-bbox-midpoints="true"
     units="px" />
  <metadata
     id="metadata5">
    <rdf:RDF>
      <cc:Work
         rdf:about="">
        <dc:format>image/svg+xml</dc:format>
        <dc:type
           rdf:resource="http://purl.org/dc/dcmitype/StillImage" />
        <dc:title></dc:title>
      </cc:Work>
    </rdf:RDF>
  </metadata>
  <g
     inkscape:label="Livello 1"
     inkscape:groupmode="layer"
     id="layer1"
     transform="translate(0,-127.66665)">
    <path
       inkscape:connector-curvature="0"
       style="fill:#ffffff;stroke-width:0.99996066"
       id="water"
       d="m 45.055371,226.73143 c -2.27243,-0.48327 -4.52234,-1.63204 -6.5405,-1.11612 -1.30009,0.34836 -2.03366,1.82965 -1.63742,3.30842 0.39623,1.47877 1.7712,2.39508 3.07226,2.04646 2.00708,-0.88563 3.83605,-2.74118 5.10566,-4.23876 z" />
    <g
       id="g885"
       transform="rotate(-15,-199.72728,-243.23468)">
      <path
         id="path2"
         d="m -2.921058,300.76402 v 3.30187 h 0.2939886 v -3.07488 z"
         style="fill:#fafffc;stroke-width:0.99996066"
         inkscape:connector-curvature="0" />
      <g
         id="turbines"
         style="fill:#ffffff"
         transform="matrix(0.99996064,0,0,0.99996064,-7.0078971,295.70222)">
        <path
           id="path4"
           d="M 5.24,0.185 4.094,2.968 A 0.96,0.96 0 0 1 4.233,2.957 0.96,0.96 0 0 1 4.84,3.174 Z M 5.128,4.264 a 0.96,0.96 0 0 1 -0.55,0.55 L 6.976,6.662 Z M 3.276,3.843 0.52,4.978 3.531,4.575 3.532,4.573 A 0.96,0.96 0 0 1 3.273,3.918 Z"
           inkscape:connector-curvature="0" />
        <circle
           cx="4.2329998"
           cy="3.918"
           r="0.31600001"
           id="circle" />
      </g>
    </g>
    <g
       id="g900"
       transform="rotate(-9.57357,-598.93352,10.921364)">
      <g
         id="g5"
         style="fill:#ffffff"
         transform="matrix(0.99996064,0,0,0.99996064,9.6252115,278.187)">
        <path
           sodipodi:nodetypes="cccccccccsscc"
           id="path2-8"
           d="m 0.8863226,6.483 c -0.0622664,0 -0.407,0.06595 -0.407,0.408 V 7.816 H 0 V 8.367 H 8 9.467 V 7.816 H 1.3824349 V 6.891 c 0,-0.108 -0.043,-0.212 -0.119,-0.288 -0.076,-0.076 -0.18,-0.119 -0.288,-0.119 z"
           inkscape:connector-curvature="0" />
        <path
           d="M 7.3,0.55 6.04,1.296 6.611,2.199 1.153,5.351 0.645,5.807 0.72,5.937 1.37,5.726 6.878,2.546 6.998,2.725 8.017,3.428 8.17,3.34 8.016,2.12 Z"
           id="pump"
           inkscape:connector-curvature="0"
           style="stroke:#ffffff;stroke-width:0.405;stroke-linejoin:round" />
      </g>
      <g
         id="g10"
         style="fill:none"
         transform="matrix(0.99996064,0,0,0.99996064,9.6252115,278.187)">
        <path
           id="path7"
           d="M 3.271,8.155 4.213,3.609 5.371,2.94 6.236,8.154 3.588,6.625 5.773,5.363 4.055,4.371 5.473,3.552 4.891,3.216"
           inkscape:connector-curvature="0"
           style="stroke:#ffffff;stroke-width:0.36500001;stroke-linejoin:round" />
        <path
           sodipodi:nodetypes="cc"
           d="M 0.931,6.6 V 5.7429051"
           id="tube"
           inkscape:connector-curvature="0"
           style="stroke:#ffffff;stroke-width:0.26499999" />
      </g>
    </g>
    <g
       id="g892"
       transform="rotate(45,104.8351,368.09074)"
       inkscape:transform-center-y="-4.2331049">
      <circle
         id="circle2"
         cx="-2.4095981"
         cy="282.16492"
         r="0.49398056"
         style="fill:#ffffff;fill-opacity:1;stroke-width:0.99996066" />
      <path
         id="path4-5"
         d="m -2.4095983,277.93109 c -2.3379079,0 -4.2328333,1.89593 -4.2328333,4.23383 0,2.33791 1.8949254,4.23284 4.2328333,4.23284 2.33790799,0 4.2328335,-1.89493 4.2328335,-4.23284 0,-2.3379 -1.89492551,-4.23383 -4.2328335,-4.23383 z m 0,0.36299 a 3.8698477,3.8698477 0 0 1 3.8698477,3.86984 3.8698477,3.8698477 0 0 1 -3.8698477,3.86985 3.8698477,3.8698477 0 0 1 -3.8698476,-3.86985 3.8698477,3.8698477 0 0 1 3.8698476,-3.86984 z"
         inkscape:connector-curvature="0"
         style="fill:#ffffff;fill-opacity:1;stroke-width:0.99996066" />
      <g
         style="fill:#ffffff;fill-opacity:1"
         id="torotate"
         transform="matrix(0.99996064,0,0,0.99996064,-6.6424316,277.93109)">
        <path
           style="fill:#ffffff;fill-opacity:1"
           id="path6"
           d="M 2.476,1.239 C 1.388,1.867 0.717,3.027 0.717,4.283 H 3.42 c 0,-0.29 0.155,-0.558 0.407,-0.703 z"
           inkscape:connector-curvature="0" />
        <path
           style="fill:#ffffff;fill-opacity:1"
           id="path8"
           d="M 2.519,7.253 A 3.52,3.52 0 0 0 6.035,7.254 L 4.682,4.913 A 0.81,0.81 0 0 1 3.87,4.912 Z M 7.706,4.209 C 7.706,2.953 7.036,1.792 5.949,1.164 L 4.597,3.505 C 4.848,3.65 5.003,3.919 5.003,4.209 Z"
           inkscape:connector-curvature="0" />
      </g>
    </g>
    <g
       transform="matrix(-0.86599132,0.49998032,-0.49998032,-0.86599132,22.110475,220.00629)"
       id="torotoscale"
       style="fill:#ffffff;fill-opacity:1">
      <path
         inkscape:connector-curvature="0"
         d="M 4.233,2.376 A 1.86,1.86 0 0 0 2.375,4.234 1.86,1.86 0 0 0 4.233,6.092 1.86,1.86 0 0 0 6.091,4.234 1.86,1.86 0 0 0 4.233,2.376 Z m 0,0.532 c 0.732,0 1.326,0.594 1.326,1.326 C 5.559,4.966 4.966,5.56 4.233,5.56 3.5,5.56 2.907,4.966 2.907,4.234 2.907,3.502 3.501,2.908 4.233,2.908 Z M 0.267,3.966 C 0.119,3.966 0,4.085 0,4.233 0,4.381 0.119,4.5 0.267,4.5 h 1.44 L 1.69,4.233 C 1.689,4.144 1.695,4.055 1.705,3.966 Z"
         id="path2-2"
         style="fill:#ffffff;fill-opacity:1" />
      <path
         inkscape:connector-curvature="0"
         d="M 1.429,1.161 C 1.361,1.161 1.292,1.187 1.24,1.24 1.135,1.345 1.135,1.514 1.24,1.618 L 2.258,2.636 A 2.54,2.54 0 0 1 2.635,2.258 L 1.618,1.24 C 1.566,1.188 1.497,1.161 1.429,1.161 Z M 4.233,0 C 4.085,0 3.966,0.119 3.966,0.267 v 1.44 L 4.233,1.69 C 4.322,1.689 4.411,1.695 4.5,1.705 V 0.267 C 4.5,0.119 4.381,0 4.233,0 Z M 7.038,1.161 C 6.97,1.161 6.901,1.187 6.849,1.24 L 5.831,2.258 A 2.55,2.55 0 0 1 6.21,2.635 L 7.227,1.619 C 7.332,1.514 7.332,1.345 7.227,1.241 7.175,1.189 7.106,1.162 7.038,1.162 Z M 6.759,3.966 6.776,4.233 C 6.777,4.322 6.771,4.411 6.761,4.5 H 8.199 C 8.347,4.5 8.466,4.381 8.466,4.233 8.466,4.085 8.347,3.966 8.199,3.966 Z M 6.209,5.831 A 2.55,2.55 0 0 1 5.832,6.21 l 1.016,1.017 c 0.105,0.105 0.274,0.105 0.378,0 0.104,-0.105 0.105,-0.274 0,-0.378 z M 4.5,6.76 4.233,6.777 C 4.144,6.778 4.055,6.772 3.966,6.762 V 8.2 c 0,0.148 0.119,0.267 0.267,0.267 C 4.381,8.467 4.5,8.348 4.5,8.2 Z M 2.257,5.833 1.24,6.849 c -0.105,0.105 -0.105,0.274 0,0.378 0.105,0.104 0.274,0.105 0.378,0 L 2.636,6.209 A 2.55,2.55 0 0 1 2.257,5.832 Z"
         id="path4-3"
         style="fill:#ffffff;fill-opacity:1" />
      <circle
         cx="4.2329998"
         cy="4.2340002"
         r="0.81699997"
         id="circle6"
         style="fill:#ffffff;fill-opacity:1" />
    </g>
    <g
       transform="rotate(90,58.85518,285.48628)"
       id="g912">
      <circle
         style="fill:#ffffff;fill-opacity:1;stroke-width:0.99996066"
         r="0.49398056"
         cy="282.16492"
         cx="-2.4095981"
         id="circle902" />
      <path
         style="fill:#ffffff;fill-opacity:1;stroke-width:0.99996066"
         inkscape:connector-curvature="0"
         d="m -2.4095983,277.93109 c -2.3379079,0 -4.2328333,1.89593 -4.2328333,4.23383 0,2.33791 1.8949254,4.23284 4.2328333,4.23284 2.33790799,0 4.2328335,-1.89493 4.2328335,-4.23284 0,-2.3379 -1.89492551,-4.23383 -4.2328335,-4.23383 z m 0,0.36299 a 3.8698477,3.8698477 0 0 1 3.8698477,3.86984 3.8698477,3.8698477 0 0 1 -3.8698477,3.86985 3.8698477,3.8698477 0 0 1 -3.8698476,-3.86985 3.8698477,3.8698477 0 0 1 3.8698476,-3.86984 z"
         id="path904" />
      <g
         transform="matrix(0.99996064,0,0,0.99996064,-6.6424316,277.93109)"
         id="g910"
         style="fill:#ffffff;fill-opacity:1">
        <path
           inkscape:connector-curvature="0"
           d="M 2.476,1.239 C 1.388,1.867 0.717,3.027 0.717,4.283 H 3.42 c 0,-0.29 0.155,-0.558 0.407,-0.703 z"
           id="path906"
           style="fill:#ffffff;fill-opacity:1" />
        <path
           inkscape:connector-curvature="0"
           d="M 2.519,7.253 A 3.52,3.52 0 0 0 6.035,7.254 L 4.682,4.913 A 0.81,0.81 0 0 1 3.87,4.912 Z M 7.706,4.209 C 7.706,2.953 7.036,1.792 5.949,1.164 L 4.597,3.505 C 4.848,3.65 5.003,3.919 5.003,4.209 Z"
           id="path908"
           style="fill:#ffffff;fill-opacity:1" />
      </g>
    </g>
    <g
       transform="rotate(9.731245,240.22424,528.42955)"
       id="g926">
      <g
         transform="matrix(0.99996064,0,0,0.99996064,9.6252115,278.187)"
         style="fill:#ffffff"
         id="g918">
        <path
           inkscape:connector-curvature="0"
           d="m 0.8863226,6.483 c -0.0622664,0 -0.407,0.06595 -0.407,0.408 V 7.816 H 0 V 8.367 H 8 9.467 V 7.816 H 1.3824349 V 6.891 c 0,-0.108 -0.043,-0.212 -0.119,-0.288 -0.076,-0.076 -0.18,-0.119 -0.288,-0.119 z"
           id="path914"
           sodipodi:nodetypes="cccccccccsscc" />
        <path
           style="stroke:#ffffff;stroke-width:0.405;stroke-linejoin:round"
           inkscape:connector-curvature="0"
           id="path916"
           d="M 7.3,0.55 6.04,1.296 6.611,2.199 1.153,5.351 0.645,5.807 0.72,5.937 1.37,5.726 6.878,2.546 6.998,2.725 8.017,3.428 8.17,3.34 8.016,2.12 Z" />
      </g>
      <g
         transform="matrix(0.99996064,0,0,0.99996064,9.6252115,278.187)"
         style="fill:none"
         id="g924">
        <path
           style="stroke:#ffffff;stroke-width:0.36500001;stroke-linejoin:round"
           inkscape:connector-curvature="0"
           d="M 3.271,8.155 4.213,3.609 5.371,2.94 6.236,8.154 3.588,6.625 5.773,5.363 4.055,4.371 5.473,3.552 4.891,3.216"
           id="path920" />
        <path
           style="stroke:#ffffff;stroke-width:0.26499999"
           inkscape:connector-curvature="0"
           id="path922"
           d="M 0.931,6.6 V 5.7429051"
           sodipodi:nodetypes="cc" />
      </g>
    </g>
    <path
       d="m 79.462755,176.75491 c -1.99611,1.18872 -4.427658,1.87376 -5.558477,3.62315 -0.717594,1.13871 -0.249898,2.72415 1.04531,3.54037 1.2952,0.81622 2.926715,0.55485 3.644849,-0.58469 0.871572,-2.01323 0.953648,-4.61735 0.868318,-6.57883 z"
       id="path928"
       style="fill:#ffffff;stroke-width:0.99996066"
       inkscape:connector-curvature="0" />
    <g
       style="fill:#ffffff;fill-opacity:1"
       id="g936"
       transform="matrix(0.99996064,0,0,0.99996064,20.312484,284.65791)">
      <path
         style="fill:#ffffff;fill-opacity:1"
         id="path930"
         d="M 4.233,2.376 A 1.86,1.86 0 0 0 2.375,4.234 1.86,1.86 0 0 0 4.233,6.092 1.86,1.86 0 0 0 6.091,4.234 1.86,1.86 0 0 0 4.233,2.376 Z m 0,0.532 c 0.732,0 1.326,0.594 1.326,1.326 C 5.559,4.966 4.966,5.56 4.233,5.56 3.5,5.56 2.907,4.966 2.907,4.234 2.907,3.502 3.501,2.908 4.233,2.908 Z M 0.267,3.966 C 0.119,3.966 0,4.085 0,4.233 0,4.381 0.119,4.5 0.267,4.5 h 1.44 L 1.69,4.233 C 1.689,4.144 1.695,4.055 1.705,3.966 Z"
         inkscape:connector-curvature="0" />
      <path
         style="fill:#ffffff;fill-opacity:1"
         id="path932"
         d="M 1.429,1.161 C 1.361,1.161 1.292,1.187 1.24,1.24 1.135,1.345 1.135,1.514 1.24,1.618 L 2.258,2.636 A 2.54,2.54 0 0 1 2.635,2.258 L 1.618,1.24 C 1.566,1.188 1.497,1.161 1.429,1.161 Z M 4.233,0 C 4.085,0 3.966,0.119 3.966,0.267 v 1.44 L 4.233,1.69 C 4.322,1.689 4.411,1.695 4.5,1.705 V 0.267 C 4.5,0.119 4.381,0 4.233,0 Z M 7.038,1.161 C 6.97,1.161 6.901,1.187 6.849,1.24 L 5.831,2.258 A 2.55,2.55 0 0 1 6.21,2.635 L 7.227,1.619 C 7.332,1.514 7.332,1.345 7.227,1.241 7.175,1.189 7.106,1.162 7.038,1.162 Z M 6.759,3.966 6.776,4.233 C 6.777,4.322 6.771,4.411 6.761,4.5 H 8.199 C 8.347,4.5 8.466,4.381 8.466,4.233 8.466,4.085 8.347,3.966 8.199,3.966 Z M 6.209,5.831 A 2.55,2.55 0 0 1 5.832,6.21 l 1.016,1.017 c 0.105,0.105 0.274,0.105 0.378,0 0.104,-0.105 0.105,-0.274 0,-0.378 z M 4.5,6.76 4.233,6.777 C 4.144,6.778 4.055,6.772 3.966,6.762 V 8.2 c 0,0.148 0.119,0.267 0.267,0.267 C 4.381,8.467 4.5,8.348 4.5,8.2 Z M 2.257,5.833 1.24,6.849 c -0.105,0.105 -0.105,0.274 0,0.378 0.105,0.104 0.274,0.105 0.378,0 L 2.636,6.209 A 2.55,2.55 0 0 1 2.257,5.832 Z"
         inkscape:connector-curvature="0" />
      <circle
         style="fill:#ffffff;fill-opacity:1"
         id="circle934"
         r="0.81699997"
         cy="4.2340002"
         cx="4.2329998" />
    </g>
    <g
       transform="rotate(30,59.37897,444.06877)"
       id="g946">
      <path
         inkscape:connector-curvature="0"
         style="fill:#fafffc;stroke-width:0.99996066"
         d="m -2.921058,300.76402 v 3.30187 h 0.2939886 v -3.07488 z"
         id="path938" />
      <g
         transform="matrix(0.99996064,0,0,0.99996064,-7.0078971,295.70222)"
         style="fill:#ffffff"
         id="g944">
        <path
           inkscape:connector-curvature="0"
           d="M 5.24,0.185 4.094,2.968 A 0.96,0.96 0 0 1 4.233,2.957 0.96,0.96 0 0 1 4.84,3.174 Z M 5.128,4.264 a 0.96,0.96 0 0 1 -0.55,0.55 L 6.976,6.662 Z M 3.276,3.843 0.52,4.978 3.531,4.575 3.532,4.573 A 0.96,0.96 0 0 1 3.273,3.918 Z"
           id="path940" />
        <circle
           id="circle942"
           r="0.31600001"
           cy="3.918"
           cx="4.2329998" />
      </g>
    </g>
    <path
       d="m 33.709908,156.27512 c -0.483275,2.27243 -1.632038,4.52234 -1.116122,6.5405 0.348359,1.30009 1.829649,2.03366 3.308424,1.63742 1.478771,-0.39623 2.395076,-1.7712 2.046461,-3.07226 -0.885632,-2.00708 -2.741186,-3.83605 -4.238763,-5.10566 z"
       id="path862"
       style="fill:#ffffff;stroke-width:0.99996066"
       inkscape:connector-curvature="0" />
    <g
       transform="rotate(-60,-100.8683,236.63005)"
       id="g872">
      <path
         inkscape:connector-curvature="0"
         style="fill:#fafffc;stroke-width:0.99996066"
         d="m -2.921058,300.76402 v 3.30187 h 0.2939886 v -3.07488 z"
         id="path864" />
      <g
         transform="matrix(0.99996064,0,0,0.99996064,-7.0078971,295.70222)"
         style="fill:#ffffff"
         id="g870">
        <path
           inkscape:connector-curvature="0"
           d="M 5.24,0.185 4.094,2.968 A 0.96,0.96 0 0 1 4.233,2.957 0.96,0.96 0 0 1 4.84,3.174 Z M 5.128,4.264 a 0.96,0.96 0 0 1 -0.55,0.55 L 6.976,6.662 Z M 3.276,3.843 0.52,4.978 3.531,4.575 3.532,4.573 A 0.96,0.96 0 0 1 3.273,3.918 Z"
           id="path866" />
        <circle
           id="circle868"
           r="0.31600001"
           cy="3.918"
           cx="4.2329998" />
      </g>
    </g>
    <g
       transform="rotate(15,590.92453,290.7987)"
       id="g886">
      <g
         transform="matrix(0.99996064,0,0,0.99996064,9.6252115,278.187)"
         style="fill:#ffffff"
         id="g878">
        <path
           inkscape:connector-curvature="0"
           d="m 0.8863226,6.483 c -0.0622664,0 -0.407,0.06595 -0.407,0.408 V 7.816 H 0 V 8.367 H 8 9.467 V 7.816 H 1.3824349 V 6.891 c 0,-0.108 -0.043,-0.212 -0.119,-0.288 -0.076,-0.076 -0.18,-0.119 -0.288,-0.119 z"
           id="path874"
           sodipodi:nodetypes="cccccccccsscc" />
        <path
           style="stroke:#ffffff;stroke-width:0.405;stroke-linejoin:round"
           inkscape:connector-curvature="0"
           id="path876"
           d="M 7.3,0.55 6.04,1.296 6.611,2.199 1.153,5.351 0.645,5.807 0.72,5.937 1.37,5.726 6.878,2.546 6.998,2.725 8.017,3.428 8.17,3.34 8.016,2.12 Z" />
      </g>
      <g
         transform="matrix(0.99996064,0,0,0.99996064,9.6252115,278.187)"
         style="fill:none"
         id="g884">
        <path
           style="stroke:#ffffff;stroke-width:0.36500001;stroke-linejoin:round"
           inkscape:connector-curvature="0"
           d="M 3.271,8.155 4.213,3.609 5.371,2.94 6.236,8.154 3.588,6.625 5.773,5.363 4.055,4.371 5.473,3.552 4.891,3.216"
           id="path880" />
        <path
           style="stroke:#ffffff;stroke-width:0.26499999"
           inkscape:connector-curvature="0"
           id="path882"
           d="M 0.931,6.6 V 5.7429051"
           sodipodi:nodetypes="cc" />
      </g>
    </g>
    <g
       transform="rotate(75,86.926231,226.51864)"
       id="g898">
      <circle
         style="fill:#ffffff;fill-opacity:1;stroke-width:0.99996066"
         r="0.49398056"
         cy="282.16492"
         cx="-2.4095981"
         id="circle888" />
      <path
         style="fill:#ffffff;fill-opacity:1;stroke-width:0.99996066"
         inkscape:connector-curvature="0"
         d="m -2.4095983,277.93109 c -2.3379079,0 -4.2328333,1.89593 -4.2328333,4.23383 0,2.33791 1.8949254,4.23284 4.2328333,4.23284 2.33790799,0 4.2328335,-1.89493 4.2328335,-4.23284 0,-2.3379 -1.89492551,-4.23383 -4.2328335,-4.23383 z m 0,0.36299 a 3.8698477,3.8698477 0 0 1 3.8698477,3.86984 3.8698477,3.8698477 0 0 1 -3.8698477,3.86985 3.8698477,3.8698477 0 0 1 -3.8698476,-3.86985 3.8698477,3.8698477 0 0 1 3.8698476,-3.86984 z"
         id="path890" />
      <g
         transform="matrix(0.99996064,0,0,0.99996064,-6.6424316,277.93109)"
         id="g896"
         style="fill:#ffffff;fill-opacity:1">
        <path
           inkscape:connector-curvature="0"
           d="M 2.476,1.239 C 1.388,1.867 0.717,3.027 0.717,4.283 H 3.42 c 0,-0.29 0.155,-0.558 0.407,-0.703 z"
           id="path892"
           style="fill:#ffffff;fill-opacity:1" />
        <path
           inkscape:connector-curvature="0"
           d="M 2.519,7.253 A 3.52,3.52 0 0 0 6.035,7.254 L 4.682,4.913 A 0.81,0.81 0 0 1 3.87,4.912 Z M 7.706,4.209 C 7.706,2.953 7.036,1.792 5.949,1.164 L 4.597,3.505 C 4.848,3.65 5.003,3.919 5.003,4.209 Z"
           id="path894"
           style="fill:#ffffff;fill-opacity:1" />
      </g>
    </g>
    <g
       style="fill:#ffffff;fill-opacity:1"
       id="g906"
       transform="matrix(0.99996064,0,0,0.99996064,0,127.66665)">
      <path
         style="fill:#ffffff;fill-opacity:1"
         id="path900"
         d="M 4.233,2.376 A 1.86,1.86 0 0 0 2.375,4.234 1.86,1.86 0 0 0 4.233,6.092 1.86,1.86 0 0 0 6.091,4.234 1.86,1.86 0 0 0 4.233,2.376 Z m 0,0.532 c 0.732,0 1.326,0.594 1.326,1.326 C 5.559,4.966 4.966,5.56 4.233,5.56 3.5,5.56 2.907,4.966 2.907,4.234 2.907,3.502 3.501,2.908 4.233,2.908 Z M 0.267,3.966 C 0.119,3.966 0,4.085 0,4.233 0,4.381 0.119,4.5 0.267,4.5 h 1.44 L 1.69,4.233 C 1.689,4.144 1.695,4.055 1.705,3.966 Z"
         inkscape:connector-curvature="0" />
      <path
         style="fill:#ffffff;fill-opacity:1"
         id="path902"
         d="M 1.429,1.161 C 1.361,1.161 1.292,1.187 1.24,1.24 1.135,1.345 1.135,1.514 1.24,1.618 L 2.258,2.636 A 2.54,2.54 0 0 1 2.635,2.258 L 1.618,1.24 C 1.566,1.188 1.497,1.161 1.429,1.161 Z M 4.233,0 C 4.085,0 3.966,0.119 3.966,0.267 v 1.44 L 4.233,1.69 C 4.322,1.689 4.411,1.695 4.5,1.705 V 0.267 C 4.5,0.119 4.381,0 4.233,0 Z M 7.038,1.161 C 6.97,1.161 6.901,1.187 6.849,1.24 L 5.831,2.258 A 2.55,2.55 0 0 1 6.21,2.635 L 7.227,1.619 C 7.332,1.514 7.332,1.345 7.227,1.241 7.175,1.189 7.106,1.162 7.038,1.162 Z M 6.759,3.966 6.776,4.233 C 6.777,4.322 6.771,4.411 6.761,4.5 H 8.199 C 8.347,4.5 8.466,4.381 8.466,4.233 8.466,4.085 8.347,3.966 8.199,3.966 Z M 6.209,5.831 A 2.55,2.55 0 0 1 5.832,6.21 l 1.016,1.017 c 0.105,0.105 0.274,0.105 0.378,0 0.104,-0.105 0.105,-0.274 0,-0.378 z M 4.5,6.76 4.233,6.777 C 4.144,6.778 4.055,6.772 3.966,6.762 V 8.2 c 0,0.148 0.119,0.267 0.267,0.267 C 4.381,8.467 4.5,8.348 4.5,8.2 Z M 2.257,5.833 1.24,6.849 c -0.105,0.105 -0.105,0.274 0,0.378 0.105,0.104 0.274,0.105 0.378,0 L 2.636,6.209 A 2.55,2.55 0 0 1 2.257,5.832 Z"
         inkscape:connector-curvature="0" />
      <circle
         style="fill:#ffffff;fill-opacity:1"
         id="circle904"
         r="0.81699997"
         cy="4.2340002"
         cx="4.2329998" />
    </g>
    <g
       id="g919"
       transform="rotate(45,187.55742,333.10356)">
      <circle
         id="circle908"
         cx="-2.4095981"
         cy="282.16492"
         r="0.49398056"
         style="fill:#ffffff;fill-opacity:1;stroke-width:0.99996066" />
      <path
         id="path910"
         d="m -2.4095983,277.93109 c -2.3379079,0 -4.2328333,1.89593 -4.2328333,4.23383 0,2.33791 1.8949254,4.23284 4.2328333,4.23284 2.33790799,0 4.2328335,-1.89493 4.2328335,-4.23284 0,-2.3379 -1.89492551,-4.23383 -4.2328335,-4.23383 z m 0,0.36299 a 3.8698477,3.8698477 0 0 1 3.8698477,3.86984 3.8698477,3.8698477 0 0 1 -3.8698477,3.86985 3.8698477,3.8698477 0 0 1 -3.8698476,-3.86985 3.8698477,3.8698477 0 0 1 3.8698476,-3.86984 z"
         inkscape:connector-curvature="0"
         style="fill:#ffffff;fill-opacity:1;stroke-width:0.99996066" />
      <g
         style="fill:#ffffff;fill-opacity:1"
         id="g917"
         transform="matrix(0.99996064,0,0,0.99996064,-6.6424316,277.93109)">
        <path
           style="fill:#ffffff;fill-opacity:1"
           id="path912"
           d="M 2.476,1.239 C 1.388,1.867 0.717,3.027 0.717,4.283 H 3.42 c 0,-0.29 0.155,-0.558 0.407,-0.703 z"
           inkscape:connector-curvature="0" />
        <path
           style="fill:#ffffff;fill-opacity:1"
           id="path915"
           d="M 2.519,7.253 A 3.52,3.52 0 0 0 6.035,7.254 L 4.682,4.913 A 0.81,0.81 0 0 1 3.87,4.912 Z M 7.706,4.209 C 7.706,2.953 7.036,1.792 5.949,1.164 L 4.597,3.505 C 4.848,3.65 5.003,3.919 5.003,4.209 Z"
           inkscape:connector-curvature="0" />
      </g>
    </g>
    <g
       id="g933"
       transform="rotate(-7.5371006,-605.83121,-393.91057)">
      <g
         id="g925"
         style="fill:#ffffff"
         transform="matrix(0.99996064,0,0,0.99996064,9.6252115,278.187)">
        <path
           sodipodi:nodetypes="cccccccccsscc"
           id="path921"
           d="m 0.8863226,6.483 c -0.0622664,0 -0.407,0.06595 -0.407,0.408 V 7.816 H 0 V 8.367 H 8 9.467 V 7.816 H 1.3824349 V 6.891 c 0,-0.108 -0.043,-0.212 -0.119,-0.288 -0.076,-0.076 -0.18,-0.119 -0.288,-0.119 z"
           inkscape:connector-curvature="0" />
        <path
           d="M 7.3,0.55 6.04,1.296 6.611,2.199 1.153,5.351 0.645,5.807 0.72,5.937 1.37,5.726 6.878,2.546 6.998,2.725 8.017,3.428 8.17,3.34 8.016,2.12 Z"
           id="path923"
           inkscape:connector-curvature="0"
           style="stroke:#ffffff;stroke-width:0.405;stroke-linejoin:round" />
      </g>
      <g
         id="g931"
         style="fill:none"
         transform="matrix(0.99996064,0,0,0.99996064,9.6252115,278.187)">
        <path
           id="path927"
           d="M 3.271,8.155 4.213,3.609 5.371,2.94 6.236,8.154 3.588,6.625 5.773,5.363 4.055,4.371 5.473,3.552 4.891,3.216"
           inkscape:connector-curvature="0"
           style="stroke:#ffffff;stroke-width:0.36500001;stroke-linejoin:round" />
        <path
           sodipodi:nodetypes="cc"
           d="M 0.931,6.6 V 5.7429051"
           id="path929"
           inkscape:connector-curvature="0"
           style="stroke:#ffffff;stroke-width:0.26499999" />
      </g>
    </g>
    <path
       inkscape:connector-curvature="0"
       style="fill:#ffffff;stroke-width:0.99996066"
       id="path935"
       d="m 64.015401,144.12059 c 2.323038,-0.0314 4.771341,0.59111 6.625356,-0.3585 1.190807,-0.62735 1.578491,-2.23423 0.864917,-3.5887 -0.713564,-1.35447 -2.25718,-1.94388 -3.448876,-1.31607 -1.761417,1.30772 -3.134559,3.52192 -4.041397,5.26327 z" />
    <g
       transform="matrix(0.99996064,0,0,0.99996064,5.7462948,248.82845)"
       id="g943"
       style="fill:#ffffff;fill-opacity:1">
      <path
         inkscape:connector-curvature="0"
         d="M 4.233,2.376 A 1.86,1.86 0 0 0 2.375,4.234 1.86,1.86 0 0 0 4.233,6.092 1.86,1.86 0 0 0 6.091,4.234 1.86,1.86 0 0 0 4.233,2.376 Z m 0,0.532 c 0.732,0 1.326,0.594 1.326,1.326 C 5.559,4.966 4.966,5.56 4.233,5.56 3.5,5.56 2.907,4.966 2.907,4.234 2.907,3.502 3.501,2.908 4.233,2.908 Z M 0.267,3.966 C 0.119,3.966 0,4.085 0,4.233 0,4.381 0.119,4.5 0.267,4.5 h 1.44 L 1.69,4.233 C 1.689,4.144 1.695,4.055 1.705,3.966 Z"
         id="path937"
         style="fill:#ffffff;fill-opacity:1" />
      <path
         inkscape:connector-curvature="0"
         d="M 1.429,1.161 C 1.361,1.161 1.292,1.187 1.24,1.24 1.135,1.345 1.135,1.514 1.24,1.618 L 2.258,2.636 A 2.54,2.54 0 0 1 2.635,2.258 L 1.618,1.24 C 1.566,1.188 1.497,1.161 1.429,1.161 Z M 4.233,0 C 4.085,0 3.966,0.119 3.966,0.267 v 1.44 L 4.233,1.69 C 4.322,1.689 4.411,1.695 4.5,1.705 V 0.267 C 4.5,0.119 4.381,0 4.233,0 Z M 7.038,1.161 C 6.97,1.161 6.901,1.187 6.849,1.24 L 5.831,2.258 A 2.55,2.55 0 0 1 6.21,2.635 L 7.227,1.619 C 7.332,1.514 7.332,1.345 7.227,1.241 7.175,1.189 7.106,1.162 7.038,1.162 Z M 6.759,3.966 6.776,4.233 C 6.777,4.322 6.771,4.411 6.761,4.5 H 8.199 C 8.347,4.5 8.466,4.381 8.466,4.233 8.466,4.085 8.347,3.966 8.199,3.966 Z M 6.209,5.831 A 2.55,2.55 0 0 1 5.832,6.21 l 1.016,1.017 c 0.105,0.105 0.274,0.105 0.378,0 0.104,-0.105 0.105,-0.274 0,-0.378 z M 4.5,6.76 4.233,6.777 C 4.144,6.778 4.055,6.772 3.966,6.762 V 8.2 c 0,0.148 0.119,0.267 0.267,0.267 C 4.381,8.467 4.5,8.348 4.5,8.2 Z M 2.257,5.833 1.24,6.849 c -0.105,0.105 -0.105,0.274 0,0.378 0.105,0.104 0.274,0.105 0.378,0 L 2.636,6.209 A 2.55,2.55 0 0 1 2.257,5.832 Z"
         id="path939"
         style="fill:#ffffff;fill-opacity:1" />
      <circle
         cx="4.2329998"
         cy="4.2340002"
         r="0.81699997"
         id="circle941"
         style="fill:#ffffff;fill-opacity:1" />
    </g>
    <g
       id="g953"
       transform="rotate(15,405.66752,508.94799)">
      <path
         id="path945"
         d="m -2.921058,300.76402 v 3.30187 h 0.2939886 v -3.07488 z"
         style="fill:#fafffc;stroke-width:0.99996066"
         inkscape:connector-curvature="0" />
      <g
         id="g951"
         style="fill:#ffffff"
         transform="matrix(0.99996064,0,0,0.99996064,-7.0078971,295.70222)">
        <path
           id="path947"
           d="M 5.24,0.185 4.094,2.968 A 0.96,0.96 0 0 1 4.233,2.957 0.96,0.96 0 0 1 4.84,3.174 Z M 5.128,4.264 a 0.96,0.96 0 0 1 -0.55,0.55 L 6.976,6.662 Z M 3.276,3.843 0.52,4.978 3.531,4.575 3.532,4.573 A 0.96,0.96 0 0 1 3.273,3.918 Z"
           inkscape:connector-curvature="0" />
        <circle
           cx="4.2329998"
           cy="3.918"
           r="0.31600001"
           id="circle949" />
      </g>
    </g>
    <path
       inkscape:connector-curvature="0"
       style="fill:#ffffff;stroke-width:0.99996066"
       id="path955"
       d="m 137.57055,184.72292 c -0.48328,2.27243 -1.63204,4.52234 -1.11612,6.5405 0.34836,1.30009 1.82965,2.03366 3.30842,1.63742 1.47877,-0.39623 2.39508,-1.7712 2.04646,-3.07226 -0.88563,-2.00708 -2.74118,-3.83605 -4.23876,-5.10566 z" />
    <g
       id="g965"
       transform="rotate(-60,-56.778972,129.74995)">
      <path
         id="path957"
         d="m -2.921058,300.76402 v 3.30187 h 0.2939886 v -3.07488 z"
         style="fill:#fafffc;stroke-width:0.99996066"
         inkscape:connector-curvature="0" />
      <g
         id="g963"
         style="fill:#ffffff"
         transform="matrix(0.99996064,0,0,0.99996064,-7.0078971,295.70222)">
        <path
           id="path959"
           d="M 5.24,0.185 4.094,2.968 A 0.96,0.96 0 0 1 4.233,2.957 0.96,0.96 0 0 1 4.84,3.174 Z M 5.128,4.264 a 0.96,0.96 0 0 1 -0.55,0.55 L 6.976,6.662 Z M 3.276,3.843 0.52,4.978 3.531,4.575 3.532,4.573 A 0.96,0.96 0 0 1 3.273,3.918 Z"
           inkscape:connector-curvature="0" />
        <circle
           cx="4.2329998"
           cy="3.918"
           r="0.31600001"
           id="circle961" />
      </g>
    </g>
    <g
       id="g979"
       transform="rotate(15,613.36644,641.66827)">
      <g
         id="g971"
         style="fill:#ffffff"
         transform="matrix(0.99996064,0,0,0.99996064,9.6252115,278.187)">
        <path
           sodipodi:nodetypes="cccccccccsscc"
           id="path967"
           d="m 0.8863226,6.483 c -0.0622664,0 -0.407,0.06595 -0.407,0.408 V 7.816 H 0 V 8.367 H 8 9.467 V 7.816 H 1.3824349 V 6.891 c 0,-0.108 -0.043,-0.212 -0.119,-0.288 -0.076,-0.076 -0.18,-0.119 -0.288,-0.119 z"
           inkscape:connector-curvature="0" />
        <path
           d="M 7.3,0.55 6.04,1.296 6.611,2.199 1.153,5.351 0.645,5.807 0.72,5.937 1.37,5.726 6.878,2.546 6.998,2.725 8.017,3.428 8.17,3.34 8.016,2.12 Z"
           id="path969"
           inkscape:connector-curvature="0"
           style="stroke:#ffffff;stroke-width:0.405;stroke-linejoin:round" />
      </g>
      <g
         id="g977"
         style="fill:none"
         transform="matrix(0.99996064,0,0,0.99996064,9.6252115,278.187)">
        <path
           id="path973"
           d="M 3.271,8.155 4.213,3.609 5.371,2.94 6.236,8.154 3.588,6.625 5.773,5.363 4.055,4.371 5.473,3.552 4.891,3.216"
           inkscape:connector-curvature="0"
           style="stroke:#ffffff;stroke-width:0.36500001;stroke-linejoin:round" />
        <path
           sodipodi:nodetypes="cc"
           d="M 0.931,6.6 V 5.7429051"
           id="path975"
           inkscape:connector-curvature="0"
           style="stroke:#ffffff;stroke-width:0.26499999" />
      </g>
    </g>
    <g
       id="g991"
       transform="rotate(75,68.846642,264.15929)">
      <circle
         id="circle981"
         cx="-2.4095981"
         cy="282.16492"
         r="0.49398056"
         style="fill:#ffffff;fill-opacity:1;stroke-width:0.99996066" />
      <path
         id="path983"
         d="m -2.4095983,277.93109 c -2.3379079,0 -4.2328333,1.89593 -4.2328333,4.23383 0,2.33791 1.8949254,4.23284 4.2328333,4.23284 2.33790799,0 4.2328335,-1.89493 4.2328335,-4.23284 0,-2.3379 -1.89492551,-4.23383 -4.2328335,-4.23383 z m 0,0.36299 a 3.8698477,3.8698477 0 0 1 3.8698477,3.86984 3.8698477,3.8698477 0 0 1 -3.8698477,3.86985 3.8698477,3.8698477 0 0 1 -3.8698476,-3.86985 3.8698477,3.8698477 0 0 1 3.8698476,-3.86984 z"
         inkscape:connector-curvature="0"
         style="fill:#ffffff;fill-opacity:1;stroke-width:0.99996066" />
      <g
         style="fill:#ffffff;fill-opacity:1"
         id="g989"
         transform="matrix(0.99996064,0,0,0.99996064,-6.6424316,277.93109)">
        <path
           style="fill:#ffffff;fill-opacity:1"
           id="path985"
           d="M 2.476,1.239 C 1.388,1.867 0.717,3.027 0.717,4.283 H 3.42 c 0,-0.29 0.155,-0.558 0.407,-0.703 z"
           inkscape:connector-curvature="0" />
        <path
           style="fill:#ffffff;fill-opacity:1"
           id="path987"
           d="M 2.519,7.253 A 3.52,3.52 0 0 0 6.035,7.254 L 4.682,4.913 A 0.81,0.81 0 0 1 3.87,4.912 Z M 7.706,4.209 C 7.706,2.953 7.036,1.792 5.949,1.164 L 4.597,3.505 C 4.848,3.65 5.003,3.919 5.003,4.209 Z"
           inkscape:connector-curvature="0" />
      </g>
    </g>
    <g
       transform="matrix(0.99996064,0,0,0.99996064,91.576415,133.81385)"
       id="g999"
       style="fill:#ffffff;fill-opacity:1">
      <path
         inkscape:connector-curvature="0"
         d="M 4.233,2.376 A 1.86,1.86 0 0 0 2.375,4.234 1.86,1.86 0 0 0 4.233,6.092 1.86,1.86 0 0 0 6.091,4.234 1.86,1.86 0 0 0 4.233,2.376 Z m 0,0.532 c 0.732,0 1.326,0.594 1.326,1.326 C 5.559,4.966 4.966,5.56 4.233,5.56 3.5,5.56 2.907,4.966 2.907,4.234 2.907,3.502 3.501,2.908 4.233,2.908 Z M 0.267,3.966 C 0.119,3.966 0,4.085 0,4.233 0,4.381 0.119,4.5 0.267,4.5 h 1.44 L 1.69,4.233 C 1.689,4.144 1.695,4.055 1.705,3.966 Z"
         id="path993"
         style="fill:#ffffff;fill-opacity:1" />
      <path
         inkscape:connector-curvature="0"
         d="M 1.429,1.161 C 1.361,1.161 1.292,1.187 1.24,1.24 1.135,1.345 1.135,1.514 1.24,1.618 L 2.258,2.636 A 2.54,2.54 0 0 1 2.635,2.258 L 1.618,1.24 C 1.566,1.188 1.497,1.161 1.429,1.161 Z M 4.233,0 C 4.085,0 3.966,0.119 3.966,0.267 v 1.44 L 4.233,1.69 C 4.322,1.689 4.411,1.695 4.5,1.705 V 0.267 C 4.5,0.119 4.381,0 4.233,0 Z M 7.038,1.161 C 6.97,1.161 6.901,1.187 6.849,1.24 L 5.831,2.258 A 2.55,2.55 0 0 1 6.21,2.635 L 7.227,1.619 C 7.332,1.514 7.332,1.345 7.227,1.241 7.175,1.189 7.106,1.162 7.038,1.162 Z M 6.759,3.966 6.776,4.233 C 6.777,4.322 6.771,4.411 6.761,4.5 H 8.199 C 8.347,4.5 8.466,4.381 8.466,4.233 8.466,4.085 8.347,3.966 8.199,3.966 Z M 6.209,5.831 A 2.55,2.55 0 0 1 5.832,6.21 l 1.016,1.017 c 0.105,0.105 0.274,0.105 0.378,0 0.104,-0.105 0.105,-0.274 0,-0.378 z M 4.5,6.76 4.233,6.777 C 4.144,6.778 4.055,6.772 3.966,6.762 V 8.2 c 0,0.148 0.119,0.267 0.267,0.267 C 4.381,8.467 4.5,8.348 4.5,8.2 Z M 2.257,5.833 1.24,6.849 c -0.105,0.105 -0.105,0.274 0,0.378 0.105,0.104 0.274,0.105 0.378,0 L 2.636,6.209 A 2.55,2.55 0 0 1 2.257,5.832 Z"
         id="path995"
         style="fill:#ffffff;fill-opacity:1" />
      <circle
         cx="4.2329998"
         cy="4.2340002"
         r="0.81699997"
         id="circle997"
         style="fill:#ffffff;fill-opacity:1" />
    </g>
    <g
       transform="rotate(75,29.500322,311.03861)"
       id="g1011">
      <circle
         style="fill:#ffffff;fill-opacity:1;stroke-width:0.99996066"
         r="0.49398056"
         cy="282.16492"
         cx="-2.4095981"
         id="circle1001" />
      <path
         style="fill:#ffffff;fill-opacity:1;stroke-width:0.99996066"
         inkscape:connector-curvature="0"
         d="m -2.4095983,277.93109 c -2.3379079,0 -4.2328333,1.89593 -4.2328333,4.23383 0,2.33791 1.8949254,4.23284 4.2328333,4.23284 2.33790799,0 4.2328335,-1.89493 4.2328335,-4.23284 0,-2.3379 -1.89492551,-4.23383 -4.2328335,-4.23383 z m 0,0.36299 a 3.8698477,3.8698477 0 0 1 3.8698477,3.86984 3.8698477,3.8698477 0 0 1 -3.8698477,3.86985 3.8698477,3.8698477 0 0 1 -3.8698476,-3.86985 3.8698477,3.8698477 0 0 1 3.8698476,-3.86984 z"
         id="path1003" />
      <g
         transform="matrix(0.99996064,0,0,0.99996064,-6.6424316,277.93109)"
         id="g1009"
         style="fill:#ffffff;fill-opacity:1">
        <path
           inkscape:connector-curvature="0"
           d="M 2.476,1.239 C 1.388,1.867 0.717,3.027 0.717,4.283 H 3.42 c 0,-0.29 0.155,-0.558 0.407,-0.703 z"
           id="path1005"
           style="fill:#ffffff;fill-opacity:1" />
        <path
           inkscape:connector-curvature="0"
           d="M 2.519,7.253 A 3.52,3.52 0 0 0 6.035,7.254 L 4.682,4.913 A 0.81,0.81 0 0 1 3.87,4.912 Z M 7.706,4.209 C 7.706,2.953 7.036,1.792 5.949,1.164 L 4.597,3.505 C 4.848,3.65 5.003,3.919 5.003,4.209 Z"
           id="path1007"
           style="fill:#ffffff;fill-opacity:1" />
      </g>
    </g>
    <g
       transform="rotate(-20.268755,-221.65228,-190.17077)"
       id="g1025">
      <g
         transform="matrix(0.99996064,0,0,0.99996064,9.6252115,278.187)"
         style="fill:#ffffff"
         id="g1017">
        <path
           inkscape:connector-curvature="0"
           d="m 0.8863226,6.483 c -0.0622664,0 -0.407,0.06595 -0.407,0.408 V 7.816 H 0 V 8.367 H 8 9.467 V 7.816 H 1.3824349 V 6.891 c 0,-0.108 -0.043,-0.212 -0.119,-0.288 -0.076,-0.076 -0.18,-0.119 -0.288,-0.119 z"
           id="path1013"
           sodipodi:nodetypes="cccccccccsscc" />
        <path
           style="stroke:#ffffff;stroke-width:0.405;stroke-linejoin:round"
           inkscape:connector-curvature="0"
           id="path1015"
           d="M 7.3,0.55 6.04,1.296 6.611,2.199 1.153,5.351 0.645,5.807 0.72,5.937 1.37,5.726 6.878,2.546 6.998,2.725 8.017,3.428 8.17,3.34 8.016,2.12 Z" />
      </g>
      <g
         transform="matrix(0.99996064,0,0,0.99996064,9.6252115,278.187)"
         style="fill:none"
         id="g1023">
        <path
           style="stroke:#ffffff;stroke-width:0.36500001;stroke-linejoin:round"
           inkscape:connector-curvature="0"
           d="M 3.271,8.155 4.213,3.609 5.371,2.94 6.236,8.154 3.588,6.625 5.773,5.363 4.055,4.371 5.473,3.552 4.891,3.216"
           id="path1019" />
        <path
           style="stroke:#ffffff;stroke-width:0.26499999"
           inkscape:connector-curvature="0"
           id="path1021"
           d="M 0.931,6.6 V 5.7429051"
           sodipodi:nodetypes="cc" />
      </g>
    </g>
    <path
       d="m 155.59181,150.26779 c 2.32304,-0.0314 4.77134,0.59111 6.62536,-0.3585 1.19081,-0.62735 1.57849,-2.23423 0.86492,-3.5887 -0.71357,-1.35447 -2.25718,-1.94388 -3.44888,-1.31607 -1.76142,1.30772 -3.13456,3.52192 -4.0414,5.26327 z"
       id="path1027"
       style="fill:#ffffff;stroke-width:0.99996066"
       inkscape:connector-curvature="0" />
    <g
       style="fill:#ffffff;fill-opacity:1"
       id="g1035"
       transform="matrix(0.99996064,0,0,0.99996064,111.8889,206.13844)">
      <path
         style="fill:#ffffff;fill-opacity:1"
         id="path1029"
         d="M 4.233,2.376 A 1.86,1.86 0 0 0 2.375,4.234 1.86,1.86 0 0 0 4.233,6.092 1.86,1.86 0 0 0 6.091,4.234 1.86,1.86 0 0 0 4.233,2.376 Z m 0,0.532 c 0.732,0 1.326,0.594 1.326,1.326 C 5.559,4.966 4.966,5.56 4.233,5.56 3.5,5.56 2.907,4.966 2.907,4.234 2.907,3.502 3.501,2.908 4.233,2.908 Z M 0.267,3.966 C 0.119,3.966 0,4.085 0,4.233 0,4.381 0.119,4.5 0.267,4.5 h 1.44 L 1.69,4.233 C 1.689,4.144 1.695,4.055 1.705,3.966 Z"
         inkscape:connector-curvature="0" />
      <path
         style="fill:#ffffff;fill-opacity:1"
         id="path1031"
         d="M 1.429,1.161 C 1.361,1.161 1.292,1.187 1.24,1.24 1.135,1.345 1.135,1.514 1.24,1.618 L 2.258,2.636 A 2.54,2.54 0 0 1 2.635,2.258 L 1.618,1.24 C 1.566,1.188 1.497,1.161 1.429,1.161 Z M 4.233,0 C 4.085,0 3.966,0.119 3.966,0.267 v 1.44 L 4.233,1.69 C 4.322,1.689 4.411,1.695 4.5,1.705 V 0.267 C 4.5,0.119 4.381,0 4.233,0 Z M 7.038,1.161 C 6.97,1.161 6.901,1.187 6.849,1.24 L 5.831,2.258 A 2.55,2.55 0 0 1 6.21,2.635 L 7.227,1.619 C 7.332,1.514 7.332,1.345 7.227,1.241 7.175,1.189 7.106,1.162 7.038,1.162 Z M 6.759,3.966 6.776,4.233 C 6.777,4.322 6.771,4.411 6.761,4.5 H 8.199 C 8.347,4.5 8.466,4.381 8.466,4.233 8.466,4.085 8.347,3.966 8.199,3.966 Z M 6.209,5.831 A 2.55,2.55 0 0 1 5.832,6.21 l 1.016,1.017 c 0.105,0.105 0.274,0.105 0.378,0 0.104,-0.105 0.105,-0.274 0,-0.378 z M 4.5,6.76 4.233,6.777 C 4.144,6.778 4.055,6.772 3.966,6.762 V 8.2 c 0,0.148 0.119,0.267 0.267,0.267 C 4.381,8.467 4.5,8.348 4.5,8.2 Z M 2.257,5.833 1.24,6.849 c -0.105,0.105 -0.105,0.274 0,0.378 0.105,0.104 0.274,0.105 0.378,0 L 2.636,6.209 A 2.55,2.55 0 0 1 2.257,5.832 Z"
         inkscape:connector-curvature="0" />
      <circle
         style="fill:#ffffff;fill-opacity:1"
         id="circle1033"
         r="0.81699997"
         cy="4.2340002"
         cx="4.2329998" />
    </g>
    <g
       transform="rotate(30,241.62131,556.4673)"
       id="g1045">
      <path
         inkscape:connector-curvature="0"
         style="fill:#fafffc;stroke-width:0.99996066"
         d="m -2.921058,300.76402 v 3.30187 h 0.2939886 v -3.07488 z"
         id="path1037" />
      <g
         transform="matrix(0.99996064,0,0,0.99996064,-7.0078971,295.70222)"
         style="fill:#ffffff"
         id="g1043">
        <path
           inkscape:connector-curvature="0"
           d="M 5.24,0.185 4.094,2.968 A 0.96,0.96 0 0 1 4.233,2.957 0.96,0.96 0 0 1 4.84,3.174 Z M 5.128,4.264 a 0.96,0.96 0 0 1 -0.55,0.55 L 6.976,6.662 Z M 3.276,3.843 0.52,4.978 3.531,4.575 3.532,4.573 A 0.96,0.96 0 0 1 3.273,3.918 Z"
           id="path1039" />
        <circle
           id="circle1041"
           r="0.31600001"
           cy="3.918"
           cx="4.2329998" />
      </g>
    </g>
    <path
       d="m 101.41364,275.56573 c 1.05496,-2.06991 2.74689,-3.94584 2.77089,-6.02876 0,-1.34596 -1.24095,-2.43792 -2.77189,-2.43791 -1.530932,-1e-5 -2.771888,1.09095 -2.771886,2.43791 0.335982,2.16791 1.654936,4.41481 2.772886,6.02876 z"
       id="path1047"
       style="fill:#ffffff;stroke-width:0.99996066"
       inkscape:connector-curvature="0" />
    <g
       transform="rotate(-60,7.0346616,193.04651)"
       id="g1057">
      <path
         inkscape:connector-curvature="0"
         style="fill:#fafffc;stroke-width:0.99996066"
         d="m -2.921058,300.76402 v 3.30187 h 0.2939886 v -3.07488 z"
         id="path1049" />
      <g
         transform="matrix(0.99996064,0,0,0.99996064,-7.0078971,295.70222)"
         style="fill:#ffffff"
         id="g1055">
        <path
           inkscape:connector-curvature="0"
           d="M 5.24,0.185 4.094,2.968 A 0.96,0.96 0 0 1 4.233,2.957 0.96,0.96 0 0 1 4.84,3.174 Z M 5.128,4.264 a 0.96,0.96 0 0 1 -0.55,0.55 L 6.976,6.662 Z M 3.276,3.843 0.52,4.978 3.531,4.575 3.532,4.573 A 0.96,0.96 0 0 1 3.273,3.918 Z"
           id="path1051" />
        <circle
           id="circle1053"
           r="0.31600001"
           cy="3.918"
           cx="4.2329998" />
      </g>
    </g>
    <g
       transform="rotate(15,39.350741,267.15009)"
       id="g1071">
      <g
         transform="matrix(0.99996064,0,0,0.99996064,9.6252115,278.187)"
         style="fill:#ffffff"
         id="g1063">
        <path
           inkscape:connector-curvature="0"
           d="m 0.8863226,6.483 c -0.0622664,0 -0.407,0.06595 -0.407,0.408 V 7.816 H 0 V 8.367 H 8 9.467 V 7.816 H 1.3824349 V 6.891 c 0,-0.108 -0.043,-0.212 -0.119,-0.288 -0.076,-0.076 -0.18,-0.119 -0.288,-0.119 z"
           id="path1059"
           sodipodi:nodetypes="cccccccccsscc" />
        <path
           style="stroke:#ffffff;stroke-width:0.405;stroke-linejoin:round"
           inkscape:connector-curvature="0"
           id="path1061"
           d="M 7.3,0.55 6.04,1.296 6.611,2.199 1.153,5.351 0.645,5.807 0.72,5.937 1.37,5.726 6.878,2.546 6.998,2.725 8.017,3.428 8.17,3.34 8.016,2.12 Z" />
      </g>
      <g
         transform="matrix(0.99996064,0,0,0.99996064,9.6252115,278.187)"
         style="fill:none"
         id="g1069">
        <path
           style="stroke:#ffffff;stroke-width:0.36500001;stroke-linejoin:round"
           inkscape:connector-curvature="0"
           d="M 3.271,8.155 4.213,3.609 5.371,2.94 6.236,8.154 3.588,6.625 5.773,5.363 4.055,4.371 5.473,3.552 4.891,3.216"
           id="path1065" />
        <path
           style="stroke:#ffffff;stroke-width:0.26499999"
           inkscape:connector-curvature="0"
           id="path1067"
           d="M 0.931,6.6 V 5.7429051"
           sodipodi:nodetypes="cc" />
      </g>
    </g>
    <g
       transform="rotate(30,193.48838,512.74812)"
       id="g1083">
      <circle
         style="fill:#ffffff;fill-opacity:1;stroke-width:0.99996066"
         r="0.49398056"
         cy="282.16492"
         cx="-2.4095981"
         id="circle1073" />
      <path
         style="fill:#ffffff;fill-opacity:1;stroke-width:0.99996066"
         inkscape:connector-curvature="0"
         d="m -2.4095983,277.93109 c -2.3379079,0 -4.2328333,1.89593 -4.2328333,4.23383 0,2.33791 1.8949254,4.23284 4.2328333,4.23284 2.33790799,0 4.2328335,-1.89493 4.2328335,-4.23284 0,-2.3379 -1.89492551,-4.23383 -4.2328335,-4.23383 z m 0,0.36299 a 3.8698477,3.8698477 0 0 1 3.8698477,3.86984 3.8698477,3.8698477 0 0 1 -3.8698477,3.86985 3.8698477,3.8698477 0 0 1 -3.8698476,-3.86985 3.8698477,3.8698477 0 0 1 3.8698476,-3.86984 z"
         id="path1075" />
      <g
         transform="matrix(0.99996064,0,0,0.99996064,-6.6424316,277.93109)"
         id="g1081"
         style="fill:#ffffff;fill-opacity:1">
        <path
           inkscape:connector-curvature="0"
           d="M 2.476,1.239 C 1.388,1.867 0.717,3.027 0.717,4.283 H 3.42 c 0,-0.29 0.155,-0.558 0.407,-0.703 z"
           id="path1077"
           style="fill:#ffffff;fill-opacity:1" />
        <path
           inkscape:connector-curvature="0"
           d="M 2.519,7.253 A 3.52,3.52 0 0 0 6.035,7.254 L 4.682,4.913 A 0.81,0.81 0 0 1 3.87,4.912 Z M 7.706,4.209 C 7.706,2.953 7.036,1.792 5.949,1.164 L 4.597,3.505 C 4.848,3.65 5.003,3.919 5.003,4.209 Z"
           id="path1079"
           style="fill:#ffffff;fill-opacity:1" />
      </g>
    </g>
    <g
       style="fill:#ffffff;fill-opacity:1"
       id="g1091"
       transform="matrix(0.99996064,0,0,0.99996064,118.30064,249.9445)">
      <path
         style="fill:#ffffff;fill-opacity:1"
         id="path1085"
         d="M 4.233,2.376 A 1.86,1.86 0 0 0 2.375,4.234 1.86,1.86 0 0 0 4.233,6.092 1.86,1.86 0 0 0 6.091,4.234 1.86,1.86 0 0 0 4.233,2.376 Z m 0,0.532 c 0.732,0 1.326,0.594 1.326,1.326 C 5.559,4.966 4.966,5.56 4.233,5.56 3.5,5.56 2.907,4.966 2.907,4.234 2.907,3.502 3.501,2.908 4.233,2.908 Z M 0.267,3.966 C 0.119,3.966 0,4.085 0,4.233 0,4.381 0.119,4.5 0.267,4.5 h 1.44 L 1.69,4.233 C 1.689,4.144 1.695,4.055 1.705,3.966 Z"
         inkscape:connector-curvature="0" />
      <path
         style="fill:#ffffff;fill-opacity:1"
         id="path1087"
         d="M 1.429,1.161 C 1.361,1.161 1.292,1.187 1.24,1.24 1.135,1.345 1.135,1.514 1.24,1.618 L 2.258,2.636 A 2.54,2.54 0 0 1 2.635,2.258 L 1.618,1.24 C 1.566,1.188 1.497,1.161 1.429,1.161 Z M 4.233,0 C 4.085,0 3.966,0.119 3.966,0.267 v 1.44 L 4.233,1.69 C 4.322,1.689 4.411,1.695 4.5,1.705 V 0.267 C 4.5,0.119 4.381,0 4.233,0 Z M 7.038,1.161 C 6.97,1.161 6.901,1.187 6.849,1.24 L 5.831,2.258 A 2.55,2.55 0 0 1 6.21,2.635 L 7.227,1.619 C 7.332,1.514 7.332,1.345 7.227,1.241 7.175,1.189 7.106,1.162 7.038,1.162 Z M 6.759,3.966 6.776,4.233 C 6.777,4.322 6.771,4.411 6.761,4.5 H 8.199 C 8.347,4.5 8.466,4.381 8.466,4.233 8.466,4.085 8.347,3.966 8.199,3.966 Z M 6.209,5.831 A 2.55,2.55 0 0 1 5.832,6.21 l 1.016,1.017 c 0.105,0.105 0.274,0.105 0.378,0 0.104,-0.105 0.105,-0.274 0,-0.378 z M 4.5,6.76 4.233,6.777 C 4.144,6.778 4.055,6.772 3.966,6.762 V 8.2 c 0,0.148 0.119,0.267 0.267,0.267 C 4.381,8.467 4.5,8.348 4.5,8.2 Z M 2.257,5.833 1.24,6.849 c -0.105,0.105 -0.105,0.274 0,0.378 0.105,0.104 0.274,0.105 0.378,0 L 2.636,6.209 A 2.55,2.55 0 0 1 2.257,5.832 Z"
         inkscape:connector-curvature="0" />
      <circle
         style="fill:#ffffff;fill-opacity:1"
         id="circle1089"
         r="0.81699997"
         cy="4.2340002"
         cx="4.2329998" />
    </g>
    <g
       id="g1103"
       transform="rotate(45,75.361608,450.97179)">
      <circle
         id="circle1093"
         cx="-2.4095981"
         cy="282.16492"
         r="0.49398056"
         style="fill:#ffffff;fill-opacity:1;stroke-width:0.99996066" />
      <path
         id="path1095"
         d="m -2.4095983,277.93109 c -2.3379079,0 -4.2328333,1.89593 -4.2328333,4.23383 0,2.33791 1.8949254,4.23284 4.2328333,4.23284 2.33790799,0 4.2328335,-1.89493 4.2328335,-4.23284 0,-2.3379 -1.89492551,-4.23383 -4.2328335,-4.23383 z m 0,0.36299 a 3.8698477,3.8698477 0 0 1 3.8698477,3.86984 3.8698477,3.8698477 0 0 1 -3.8698477,3.86985 3.8698477,3.8698477 0 0 1 -3.8698476,-3.86985 3.8698477,3.8698477 0 0 1 3.8698476,-3.86984 z"
         inkscape:connector-curvature="0"
         style="fill:#ffffff;fill-opacity:1;stroke-width:0.99996066" />
      <g
         style="fill:#ffffff;fill-opacity:1"
         id="g1101"
         transform="matrix(0.99996064,0,0,0.99996064,-6.6424316,277.93109)">
        <path
           style="fill:#ffffff;fill-opacity:1"
           id="path1097"
           d="M 2.476,1.239 C 1.388,1.867 0.717,3.027 0.717,4.283 H 3.42 c 0,-0.29 0.155,-0.558 0.407,-0.703 z"
           inkscape:connector-curvature="0" />
        <path
           style="fill:#ffffff;fill-opacity:1"
           id="path1099"
           d="M 2.519,7.253 A 3.52,3.52 0 0 0 6.035,7.254 L 4.682,4.913 A 0.81,0.81 0 0 1 3.87,4.912 Z M 7.706,4.209 C 7.706,2.953 7.036,1.792 5.949,1.164 L 4.597,3.505 C 4.848,3.65 5.003,3.919 5.003,4.209 Z"
           inkscape:connector-curvature="0" />
      </g>
    </g>
    <g
       id="g1117"
       transform="rotate(-20.268755,20.404606,-138.94292)">
      <g
         id="g1109"
         style="fill:#ffffff"
         transform="matrix(0.99996064,0,0,0.99996064,9.6252115,278.187)">
        <path
           sodipodi:nodetypes="cccccccccsscc"
           id="path1105"
           d="m 0.8863226,6.483 c -0.0622664,0 -0.407,0.06595 -0.407,0.408 V 7.816 H 0 V 8.367 H 8 9.467 V 7.816 H 1.3824349 V 6.891 c 0,-0.108 -0.043,-0.212 -0.119,-0.288 -0.076,-0.076 -0.18,-0.119 -0.288,-0.119 z"
           inkscape:connector-curvature="0" />
        <path
           d="M 7.3,0.55 6.04,1.296 6.611,2.199 1.153,5.351 0.645,5.807 0.72,5.937 1.37,5.726 6.878,2.546 6.998,2.725 8.017,3.428 8.17,3.34 8.016,2.12 Z"
           id="path1107"
           inkscape:connector-curvature="0"
           style="stroke:#ffffff;stroke-width:0.405;stroke-linejoin:round" />
      </g>
      <g
         id="g1115"
         style="fill:none"
         transform="matrix(0.99996064,0,0,0.99996064,9.6252115,278.187)">
        <path
           id="path1111"
           d="M 3.271,8.155 4.213,3.609 5.371,2.94 6.236,8.154 3.588,6.625 5.773,5.363 4.055,4.371 5.473,3.552 4.891,3.216"
           inkscape:connector-curvature="0"
           style="stroke:#ffffff;stroke-width:0.36500001;stroke-linejoin:round" />
        <path
           sodipodi:nodetypes="cc"
           d="M 0.931,6.6 V 5.7429051"
           id="path1113"
           inkscape:connector-curvature="0"
           style="stroke:#ffffff;stroke-width:0.26499999" />
      </g>
    </g>
    <path
       inkscape:connector-curvature="0"
       style="fill:#ffffff;stroke-width:0.99996066"
       id="path1119"
       d="m 152.83389,237.29427 c 2.32304,-0.0314 4.77134,0.59111 6.62536,-0.3585 1.19081,-0.62735 1.57849,-2.23423 0.86492,-3.5887 -0.71357,-1.35447 -2.25718,-1.94388 -3.44888,-1.31607 -1.76142,1.30772 -3.13456,3.52192 -4.0414,5.26327 z" />
    <g
       transform="matrix(0.99996064,0,0,0.99996064,114.42265,279.93575)"
       id="g1127"
       style="fill:#ffffff;fill-opacity:1">
      <path
         inkscape:connector-curvature="0"
         d="M 4.233,2.376 A 1.86,1.86 0 0 0 2.375,4.234 1.86,1.86 0 0 0 4.233,6.092 1.86,1.86 0 0 0 6.091,4.234 1.86,1.86 0 0 0 4.233,2.376 Z m 0,0.532 c 0.732,0 1.326,0.594 1.326,1.326 C 5.559,4.966 4.966,5.56 4.233,5.56 3.5,5.56 2.907,4.966 2.907,4.234 2.907,3.502 3.501,2.908 4.233,2.908 Z M 0.267,3.966 C 0.119,3.966 0,4.085 0,4.233 0,4.381 0.119,4.5 0.267,4.5 h 1.44 L 1.69,4.233 C 1.689,4.144 1.695,4.055 1.705,3.966 Z"
         id="path1121"
         style="fill:#ffffff;fill-opacity:1" />
      <path
         inkscape:connector-curvature="0"
         d="M 1.429,1.161 C 1.361,1.161 1.292,1.187 1.24,1.24 1.135,1.345 1.135,1.514 1.24,1.618 L 2.258,2.636 A 2.54,2.54 0 0 1 2.635,2.258 L 1.618,1.24 C 1.566,1.188 1.497,1.161 1.429,1.161 Z M 4.233,0 C 4.085,0 3.966,0.119 3.966,0.267 v 1.44 L 4.233,1.69 C 4.322,1.689 4.411,1.695 4.5,1.705 V 0.267 C 4.5,0.119 4.381,0 4.233,0 Z M 7.038,1.161 C 6.97,1.161 6.901,1.187 6.849,1.24 L 5.831,2.258 A 2.55,2.55 0 0 1 6.21,2.635 L 7.227,1.619 C 7.332,1.514 7.332,1.345 7.227,1.241 7.175,1.189 7.106,1.162 7.038,1.162 Z M 6.759,3.966 6.776,4.233 C 6.777,4.322 6.771,4.411 6.761,4.5 H 8.199 C 8.347,4.5 8.466,4.381 8.466,4.233 8.466,4.085 8.347,3.966 8.199,3.966 Z M 6.209,5.831 A 2.55,2.55 0 0 1 5.832,6.21 l 1.016,1.017 c 0.105,0.105 0.274,0.105 0.378,0 0.104,-0.105 0.105,-0.274 0,-0.378 z M 4.5,6.76 4.233,6.777 C 4.144,6.778 4.055,6.772 3.966,6.762 V 8.2 c 0,0.148 0.119,0.267 0.267,0.267 C 4.381,8.467 4.5,8.348 4.5,8.2 Z M 2.257,5.833 1.24,6.849 c -0.105,0.105 -0.105,0.274 0,0.378 0.105,0.104 0.274,0.105 0.378,0 L 2.636,6.209 A 2.55,2.55 0 0 1 2.257,5.832 Z"
         id="path1123"
         style="fill:#ffffff;fill-opacity:1" />
      <circle
         cx="4.2329998"
         cy="4.2340002"
         r="0.81699997"
         id="circle1125"
         style="fill:#ffffff;fill-opacity:1" />
    </g>
    <g
       id="g1137"
       transform="rotate(30,106.89317,594.61129)">
      <path
         id="path1129"
         d="m -2.921058,300.76402 v 3.30187 h 0.2939886 v -3.07488 z"
         style="fill:#fafffc;stroke-width:0.99996066"
         inkscape:connector-curvature="0" />
      <g
         id="g1135"
         style="fill:#ffffff"
         transform="matrix(0.99996064,0,0,0.99996064,-7.0078971,295.70222)">
        <path
           id="path1131"
           d="M 5.24,0.185 4.094,2.968 A 0.96,0.96 0 0 1 4.233,2.957 0.96,0.96 0 0 1 4.84,3.174 Z M 5.128,4.264 a 0.96,0.96 0 0 1 -0.55,0.55 L 6.976,6.662 Z M 3.276,3.843 0.52,4.978 3.531,4.575 3.532,4.573 A 0.96,0.96 0 0 1 3.273,3.918 Z"
           inkscape:connector-curvature="0" />
        <circle
           cx="4.2329998"
           cy="3.918"
           r="0.31600001"
           id="circle1133" />
      </g>
    </g>
  </g>
</svg>
