<?xml version="1.0" encoding="UTF-8" standalone="no"?>
<svg
   xmlns:dc="http://purl.org/dc/elements/1.1/"
   xmlns:cc="http://creativecommons.org/ns#"
   xmlns:rdf="http://www.w3.org/1999/02/22-rdf-syntax-ns#"
   xmlns:svg="http://www.w3.org/2000/svg"
   xmlns="http://www.w3.org/2000/svg"
   xmlns:sodipodi="http://sodipodi.sourceforge.net/DTD/sodipodi-0.dtd"
   xmlns:inkscape="http://www.inkscape.org/namespaces/inkscape"
   width="32"
   height="32"
   viewBox="0 0 8.467 8.467"
   fill="#fff"
   version="1.1"
   id="svg8"
   sodipodi:docname="light-theme-icon.svg"
   inkscape:version="0.92.4 (5da689c313, 2019-01-14)">
  <metadata
     id="metadata14">
    <rdf:RDF>
      <cc:Work
         rdf:about="">
        <dc:format>image/svg+xml</dc:format>
        <dc:type
           rdf:resource="http://purl.org/dc/dcmitype/StillImage" />
        <dc:title />
      </cc:Work>
    </rdf:RDF>
  </metadata>
  <defs
     id="defs12" />
  <sodipodi:namedview
     pagecolor="#ffffff"
     bordercolor="#666666"
     borderopacity="1"
     objecttolerance="10"
     gridtolerance="10"
     guidetolerance="10"
     inkscape:pageopacity="0"
     inkscape:pageshadow="2"
     inkscape:window-width="1920"
     inkscape:window-height="1017"
     id="namedview10"
     showgrid="false"
     inkscape:pagecheckerboard="true"
     inkscape:zoom="10.429825"
     inkscape:cx="-10.004796"
     inkscape:cy="19.93304"
     inkscape:window-x="-8"
     inkscape:window-y="-8"
     inkscape:window-maximized="1"
     inkscape:current-layer="svg8"
     inkscape:snap-center="true"
     inkscape:snap-object-midpoints="true"
     inkscape:snap-midpoints="true"
     inkscape:snap-smooth-nodes="true"
     inkscape:snap-intersection-paths="true"
     inkscape:object-paths="true"
     inkscape:snap-bbox="true"
     inkscape:snap-page="true" />
  <circle
     cx="4.2335"
     cy="4.2335"
     r="1.2654638"
     id="circle6"
     style="fill:#000000;fill-opacity:1;stroke-width:1.54891539" />
  <path
     style="fill:#000000;fill-opacity:1;stroke:#000000;stroke-width:0.5291875;stroke-miterlimit:4;stroke-dasharray:none;stroke-opacity:1"
     id="path831"
     d="m 0.39110461,4.0439942 c -0.048083,0.048083 -0.078489,0.1152584 -0.077782,0.1895046 0,0.1484924 0.119501,0.2679935 0.2672863,0.2672864 H 2.0202786 C 2.00129,4.3233489 2.001053,4.1444055 2.0195715,3.9669195 L 0.58060921,3.9662124 c -0.073539,0 -0.1414213,0.029698 -0.1895046,0.077782 z"
     inkscape:connector-curvature="0"
     sodipodi:nodetypes="scccccs"
     inkscape:transform-center-x="3.0667055" />
  <path
     sodipodi:nodetypes="scccccs"
     inkscape:connector-curvature="0"
     d="m 4.4230062,0.39110484 c -0.048083,-0.048083 -0.1152584,-0.078489 -0.1895046,-0.077782 -0.1484924,0 -0.2679935,0.119501 -0.2672864,0.2672863 V 2.0202789 C 4.1436515,2.0012899 4.3225949,2.0010529 4.5000809,2.0195718 L 4.500788,0.58060944 c 0,-0.073539 -0.029698,-0.1414213 -0.077782,-0.1895046 z"
     id="path835"
     style="fill:#000000;fill-opacity:1;stroke:#000000;stroke-width:0.5291875;stroke-miterlimit:4;stroke-dasharray:none;stroke-opacity:1"
     inkscape:transform-center-y="-3.0667055" />
  <path
     style="fill:#000000;fill-opacity:1;stroke:#000000;stroke-width:0.5291875;stroke-miterlimit:4;stroke-dasharray:none;stroke-opacity:1"
     id="path837"
     d="m 8.0758955,4.4230065 c 0.048083,-0.048083 0.078489,-0.1152584 0.077782,-0.1895046 0,-0.1484924 -0.119501,-0.2679935 -0.2672863,-0.2672864 H 6.4467215 c 0.018989,0.1774363 0.019226,0.3563797 7.071e-4,0.5338657 l 1.4389623,7.071e-4 c 0.073539,0 0.1414213,-0.029698 0.1895046,-0.077782 z"
     inkscape:connector-curvature="0"
     sodipodi:nodetypes="scccccs"
     inkscape:transform-center-x="-3.0667055" />
  <path
     sodipodi:nodetypes="scccccs"
     inkscape:connector-curvature="0"
     d="m 4.0439939,8.0758958 c 0.048083,0.048083 0.1152584,0.078489 0.1895046,0.077782 0.1484924,0 0.2679935,-0.119501 0.2672864,-0.2672863 V 6.4467218 c -0.1774363,0.018989 -0.3563797,0.019226 -0.5338657,7.071e-4 l -7.071e-4,1.4389623 c 0,0.073539 0.029698,0.1414213 0.077782,0.1895046 z"
     id="path839"
     style="fill:#000000;fill-opacity:1;stroke:#000000;stroke-width:0.5291875;stroke-miterlimit:4;stroke-dasharray:none;stroke-opacity:1"
     inkscape:transform-center-y="3.0667055" />
  <path
     inkscape:transform-center-y="2.1138579"
     style="fill:#000000;fill-opacity:1;stroke:#000000;stroke-width:0.26459375;stroke-miterlimit:4;stroke-dasharray:none;stroke-opacity:1"
     id="path841"
     d="m 1.3825151,6.8164831 c 0,0.068 0.026,0.1370001 0.079,0.1890002 0.105,0.105 0.274,0.1050001 0.378,1e-7 l 1.018,-1.0180002 C 2.7186214,5.875444 2.5919217,5.7490795 2.479515,5.6104831 l -1.018,1.017 c -0.052,0.052 -0.079,0.1209996 -0.079,0.189 z"
     inkscape:connector-curvature="0"
     sodipodi:nodetypes="scccccs"
     inkscape:transform-center-x="2.113485" />
  <path
     inkscape:transform-center-x="2.1138579"
     sodipodi:nodetypes="scccccs"
     inkscape:connector-curvature="0"
     d="m 1.6505173,1.3825153 c -0.068,0 -0.1370001,0.026 -0.1890002,0.079 -0.105,0.105 -0.1050001,0.274 -1e-7,0.378 l 1.0180002,1.018 C 2.5915564,2.7186216 2.7179209,2.5919219 2.8565173,2.4795152 l -1.017,-1.018 c -0.052,-0.052 -0.1209996,-0.079 -0.189,-0.079 z"
     id="path843"
     style="fill:#000000;fill-opacity:1;stroke:#000000;stroke-width:0.26459375;stroke-miterlimit:4;stroke-dasharray:none;stroke-opacity:1"
     inkscape:transform-center-y="-2.113485" />
  <path
     inkscape:transform-center-y="-2.1138579"
     style="fill:#000000;fill-opacity:1;stroke:#000000;stroke-width:0.26459375;stroke-miterlimit:4;stroke-dasharray:none;stroke-opacity:1"
     id="path845"
     d="m 7.0844851,1.6505175 c 0,-0.068 -0.026,-0.1370001 -0.079,-0.1890002 -0.105,-0.105 -0.274,-0.1050001 -0.378,-10e-8 l -1.018,1.0180002 c 0.1388937,0.1120392 0.2655934,0.2384037 0.3780001,0.3770001 l 1.018,-1.017 c 0.052,-0.052 0.079,-0.1209996 0.079,-0.189 z"
     inkscape:connector-curvature="0"
     sodipodi:nodetypes="scccccs"
     inkscape:transform-center-x="-2.113485" />
  <path
     inkscape:transform-center-x="-2.1138579"
     sodipodi:nodetypes="scccccs"
     inkscape:connector-curvature="0"
     d="m 6.8164829,7.0844853 c 0.068,0 0.1370001,-0.026 0.1890002,-0.079 0.105,-0.105 0.1050001,-0.274 10e-8,-0.378 l -1.0180002,-1.018 C 5.8754438,5.748379 5.7490793,5.8750787 5.6104829,5.9874854 l 1.017,1.018 c 0.052,0.052 0.1209996,0.079 0.189,0.079 z"
     id="path847"
     style="fill:#000000;fill-opacity:1;stroke:#000000;stroke-width:0.26459375;stroke-miterlimit:4;stroke-dasharray:none;stroke-opacity:1"
     inkscape:transform-center-y="2.113485" />
</svg>
