<svg xmlns="http://www.w3.org/2000/svg" width="32" height="32" viewBox="0 0 8.467 8.467"  fill="#fff">
<circle r=".494" cy="4.234" cx="4.233"/><path d="M4.233 0C1.895 0 0 1.896 0 4.234s1.895 4.233 4.233 4.233 4.233-1.895 4.233-4.233S6.571 0 4.233 0zm0 .363a3.87 3.87 0 0 1 3.87 3.87 3.87 3.87 0 0 1-3.87 3.87 3.87 3.87 0 0 1-3.87-3.87 3.87 3.87 0 0 1 3.87-3.87z"/>
<g id = "torotate">
   <path d="M2.476 1.239C1.388 1.867.717 3.027.717 4.283H3.42c0-.29.155-.558.407-.703z"/>
   <path d="M2.519 7.253a3.52 3.52 0 0 0 3.516.001L4.682 4.913a.81.81 0 0 1-.812-.001zm5.187-3.044c0-1.256-.67-2.417-1.757-3.045L4.597 3.505c.251.145.406.414.406.704z"/>
</g>
<style>
#torotate{
   transform-origin: center center;
   animation: rotate 4s infinite 0.8s linear;
}
@keyframes rotate {
   0%   { transform: rotate(0deg); }
   100% { transform: rotate(360deg); }
}
</style>
</svg>