<svg xmlns="http://www.w3.org/2000/svg" width="32" height="32" viewBox="0 0 8.467 8.467"  xmlns:v="https://vecta.io/nano"><style><![CDATA[.B{stroke:#fff}.C{stroke-linejoin:round}.D{stroke-width:.265}]]></style><g fill="#fff"><path d="M0 8.467v-.551h8.467v.551zm1.094-3.394l-.508.456.288.498.649-.211 6.543-3.777-.429-.743z"/><path d="M7.455.641l-1.26.746.957 1.429 1.019.703.154-.089-.154-1.22z" stroke-width=".285" class="B C"/></g><path d="M4.271 8.055l.942-4.546 1.158-.669.865 5.214-2.648-1.529 2.185-1.262-1.718-.992 1.418-.819-.582-.336" fill="none" stroke-width=".365" class="B C"/><g fill="#fff" class="D B C"><path d="M1.524 6.991h.815v.925h-.815z"/><circle cx="1.931" cy="6.991" r=".408"/></g><path d="M1.931 6.583V5.042" fill="none" class="B D"/></svg>