<svg xmlns="http://www.w3.org/2000/svg" width="32" height="32" viewBox="0 0 8.467 8.467">
<g fill="#fff">
    <path d="M0.31 6.483c-.225 0-.07.183-0.407.408v.925H0v.551h8 1.467v-.551H2.339v-.925c0-.108-.043-.212-.119-.288s-.18-.119-.288-.119z"/>
    <path id="pump" d="M7.3 .55l-1.26.746.571.903-5.458 3.152-.508.456.075.13.65-.211 5.508-3.18.12.179 1.019.703.153-.088-.154-1.22z" stroke-width=".405" stroke="#fff" stroke-linejoin="round"/>
</g>
<g fill="none">
    <path d="M3.271 8.155l.942-4.546 1.158-.669.865 5.214-2.648-1.529 2.185-1.262-1.718-.992 1.418-.819-.582-.336" stroke="#fff" stroke-width=".365" stroke-linejoin="round"/>
    <path id="tube" d="M0.931 6.6V5.058" stroke="#fff" stroke-width=".265"/>
</g>
<style>
#tube
{
    transform-origin: 0.931px 6.6px;
    animation: stretch 2s infinite 0.8s linear;
}
#pump
{
    transform-origin: 5.5px 3px;
    animation: rotate 2s infinite 0.8s linear;
}
@keyframes rotate {
  0%   { transform: rotate(0deg); }
  50% { transform: rotate(50deg); }
}
@keyframes stretch{
    0%{transform:scale(0.9,0)}
    50%{transform:scale(1,3.5)}
}
</style>
</svg>