<svg xmlns="http://www.w3.org/2000/svg" width="32" height="32" viewBox="0 0 8.467 8.467"  fill="#fff" xmlns:v="https://vecta.io/nano"><path d="M4.233 2.376a1.86 1.86 0 0 0-1.858 1.858 1.86 1.86 0 0 0 1.858 1.858 1.86 1.86 0 0 0 1.858-1.858 1.86 1.86 0 0 0-1.858-1.858zm0 .532c.732 0 1.326.594 1.326 1.326S4.966 5.56 4.233 5.56s-1.326-.594-1.326-1.326.594-1.326 1.326-1.326zM.267 3.966c-.148 0-.267.119-.267.267s.119.267.267.267h1.44l-.017-.267c-.001-.089.005-.178.015-.267H.267z"/><path d="M1.429 1.161c-.068 0-.137.026-.189.079-.105.105-.105.274 0 .378l1.018 1.018a2.54 2.54 0 0 1 .377-.378L1.618 1.24c-.052-.052-.121-.079-.189-.079zM4.233 0c-.148 0-.267.119-.267.267v1.44l.267-.017c.089-.001.178.005.267.015V.267C4.5.119 4.381 0 4.233 0zm2.805 1.161c-.068 0-.137.026-.189.079L5.831 2.258a2.55 2.55 0 0 1 .379.377l1.017-1.016c.105-.105.105-.274 0-.378-.052-.052-.121-.079-.189-.079zm-.279 2.805l.017.267c.001.089-.005.178-.015.267h1.438c.148 0 .267-.119.267-.267s-.119-.267-.267-.267h-1.44zm-.55 1.865a2.55 2.55 0 0 1-.377.379l1.016 1.017c.105.105.274.105.378 0s.105-.274 0-.378L6.209 5.831zM4.5 6.76l-.267.017c-.089.001-.178-.005-.267-.015V8.2c0 .148.119.267.267.267S4.5 8.348 4.5 8.2V6.76zm-2.243-.927L1.24 6.849c-.105.105-.105.274 0 .378s.274.105.378 0l1.018-1.018a2.55 2.55 0 0 1-.379-.377z"/><circle cx="4.233" cy="4.234" r=".817"/></svg>