<?xml version="1.0" encoding="UTF-8" standalone="no"?>
<!-- Created with Inkscape (http://www.inkscape.org/) -->

<svg
   xmlns:dc="http://purl.org/dc/elements/1.1/"
   xmlns:cc="http://creativecommons.org/ns#"
   xmlns:rdf="http://www.w3.org/1999/02/22-rdf-syntax-ns#"
   xmlns:svg="http://www.w3.org/2000/svg"
   xmlns="http://www.w3.org/2000/svg"
   xmlns:sodipodi="http://sodipodi.sourceforge.net/DTD/sodipodi-0.dtd"
   xmlns:inkscape="http://www.inkscape.org/namespaces/inkscape"
   width="32"
   height="32"
   viewBox="0 0 8.4666665 8.4666669"
   version="1.1"
   id="svg8"
   inkscape:version="0.92.4 (5da689c313, 2019-01-14)"
   sodipodi:docname="sun-icon-white.svg">
  <defs
     id="defs2">
    <inkscape:path-effect
       effect="spiro"
       id="path-effect829"
       is_visible="true" />
    <inkscape:path-effect
       is_visible="true"
       id="path-effect828"
       effect="spiro" />
    <inkscape:path-effect
       effect="spiro"
       id="path-effect823"
       is_visible="true" />
    <inkscape:path-effect
       is_visible="true"
       id="path-effect863"
       effect="spiro" />
    <inkscape:path-effect
       effect="bspline"
       id="path-effect880"
       is_visible="true"
       weight="33.333333"
       steps="2"
       helper_size="0"
       apply_no_weight="true"
       apply_with_weight="true"
       only_selected="false" />
    <inkscape:path-effect
       effect="bspline"
       id="path-effect876"
       is_visible="true"
       weight="33.333333"
       steps="2"
       helper_size="0"
       apply_no_weight="true"
       apply_with_weight="true"
       only_selected="false" />
    <inkscape:path-effect
       effect="spiro"
       id="path-effect827"
       is_visible="true" />
  </defs>
  <sodipodi:namedview
     id="base"
     pagecolor="#ffffff"
     bordercolor="#666666"
     borderopacity="1.0"
     inkscape:pageopacity="0.0"
     inkscape:pageshadow="2"
     inkscape:zoom="31.678384"
     inkscape:cx="22.23789"
     inkscape:cy="14.155239"
     inkscape:document-units="mm"
     inkscape:current-layer="layer1"
     showgrid="false"
     inkscape:snap-object-midpoints="true"
     inkscape:snap-center="true"
     inkscape:object-paths="true"
     inkscape:snap-intersection-paths="true"
     inkscape:snap-smooth-nodes="true"
     inkscape:snap-midpoints="true"
     inkscape:window-width="1920"
     inkscape:window-height="1017"
     inkscape:window-x="-8"
     inkscape:window-y="-8"
     inkscape:window-maximized="1"
     inkscape:object-nodes="true"
     inkscape:lockguides="true"
     inkscape:snap-text-baseline="false"
     inkscape:pagecheckerboard="true"
     inkscape:snap-page="true"
     inkscape:snap-nodes="true"
     inkscape:snap-bbox="true"
     inkscape:bbox-paths="true"
     inkscape:bbox-nodes="true"
     inkscape:snap-bbox-edge-midpoints="true"
     inkscape:snap-bbox-midpoints="true"
     units="px"
     inkscape:snap-global="true" />
  <metadata
     id="metadata5">
    <rdf:RDF>
      <cc:Work
         rdf:about="">
        <dc:format>image/svg+xml</dc:format>
        <dc:type
           rdf:resource="http://purl.org/dc/dcmitype/StillImage" />
        <dc:title />
      </cc:Work>
    </rdf:RDF>
  </metadata>
  <g
     inkscape:label="Livello 1"
     inkscape:groupmode="layer"
     id="layer1"
     transform="translate(0,-288.53332)">
    <path
       style="fill:#ffffff;fill-opacity:1;stroke:none;stroke-width:0.4388395;stroke-linecap:round;stroke-linejoin:round;stroke-miterlimit:4;stroke-dasharray:none;stroke-opacity:1"
       d="M 16 8.9785156 A 7.0214297 7.0214297 0 0 0 8.9785156 16 A 7.0214297 7.0214297 0 0 0 16 23.021484 A 7.0214297 7.0214297 0 0 0 23.021484 16 A 7.0214297 7.0214297 0 0 0 16 8.9785156 z M 16 10.988281 A 5.0125009 5.0125009 0 0 1 21.011719 16 A 5.0125009 5.0125009 0 0 1 16 21.011719 A 5.0125009 5.0125009 0 0 1 10.988281 16 A 5.0125009 5.0125009 0 0 1 16 10.988281 z "
       transform="matrix(0.26458333,0,0,0.26458333,0,288.53332)"
       id="path822" />
    <path
       style="fill:#ffffff;fill-opacity:1;stroke:none;stroke-width:0.89442748;stroke-linecap:round;stroke-linejoin:round;stroke-miterlimit:4;stroke-dasharray:none;stroke-opacity:1"
       d="M 1.0097656 14.990234 C 0.45014113 14.990234 2.5009329e-17 15.440376 0 16 C 0 16.559624 0.45014113 17.009766 1.0097656 17.009766 L 6.453125 17.009766 A 9.6107159 9.6107159 0 0 1 6.3886719 16 A 9.6107159 9.6107159 0 0 1 6.4453125 14.990234 L 1.0097656 14.990234 z "
       transform="matrix(0.26458333,0,0,0.26458333,0,288.53332)"
       id="rect824" />
    <path
       style="fill:#ffffff;fill-opacity:1;stroke:none;stroke-width:0.89442748;stroke-linecap:round;stroke-linejoin:round;stroke-miterlimit:4;stroke-dasharray:none;stroke-opacity:1"
       d="m 5.4003906,4.3886719 c -0.2582143,0 -0.5169866,0.099018 -0.7148437,0.296875 -0.3957143,0.3957143 -0.3957143,1.0339732 0,1.4296875 L 8.5332031,9.9609375 A 9.6107159,9.6107159 0 0 1 9.9589844,8.53125 L 6.1152344,4.6855469 C 5.9173772,4.4876897 5.6586049,4.3886719 5.4003906,4.3886719 Z"
       transform="matrix(0.26458333,0,0,0.26458333,0,288.53332)"
       id="rect826"
       inkscape:connector-curvature="0"
       inkscape:transform-center-x="2.335246"
       inkscape:transform-center-y="-2.3350089" />
    <path
       style="fill:#ffffff;fill-opacity:1;stroke:none;stroke-width:0.89442748;stroke-linecap:round;stroke-linejoin:round;stroke-miterlimit:4;stroke-dasharray:none;stroke-opacity:1"
       d="M 16 0 C 15.440376 0 14.990234 0.45014113 14.990234 1.0097656 L 14.990234 6.453125 A 9.6107159 9.6107159 0 0 1 16 6.3886719 A 9.6107159 9.6107159 0 0 1 17.009766 6.4453125 L 17.009766 1.0097656 C 17.009766 0.45014113 16.559624 2.5009329e-17 16 0 z "
       transform="matrix(0.26458333,0,0,0.26458333,0,288.53332)"
       id="rect828" />
    <path
       style="fill:#ffffff;fill-opacity:1;stroke:none;stroke-width:0.89442748;stroke-linecap:round;stroke-linejoin:round;stroke-miterlimit:4;stroke-dasharray:none;stroke-opacity:1"
       d="M 26.599609 4.3886719 C 26.341395 4.3886719 26.082623 4.4876897 25.884766 4.6855469 L 22.039062 8.5332031 A 9.6107159 9.6107159 0 0 1 23.470703 9.9570312 L 27.314453 6.1152344 C 27.710167 5.7195201 27.710167 5.0812612 27.314453 4.6855469 C 27.116596 4.4876897 26.857824 4.3886719 26.599609 4.3886719 z "
       transform="matrix(0.26458333,0,0,0.26458333,0,288.53332)"
       id="rect830" />
    <path
       style="fill:#ffffff;fill-opacity:1;stroke:none;stroke-width:0.89442748;stroke-linecap:round;stroke-linejoin:round;stroke-miterlimit:4;stroke-dasharray:none;stroke-opacity:1"
       d="M 25.546875 14.990234 A 9.6107159 9.6107159 0 0 1 25.611328 16 A 9.6107159 9.6107159 0 0 1 25.554688 17.009766 L 30.990234 17.009766 C 31.549859 17.009766 32 16.559624 32 16 C 32 15.440376 31.549859 14.990234 30.990234 14.990234 L 25.546875 14.990234 z "
       transform="matrix(0.26458333,0,0,0.26458333,0,288.53332)"
       id="rect832" />
    <path
       style="fill:#ffffff;fill-opacity:1;stroke:none;stroke-width:0.89442748;stroke-linecap:round;stroke-linejoin:round;stroke-miterlimit:4;stroke-dasharray:none;stroke-opacity:1"
       d="M 23.466797 22.039062 A 9.6107159 9.6107159 0 0 1 22.042969 23.470703 L 25.884766 27.314453 C 26.28048 27.710167 26.918739 27.710167 27.314453 27.314453 C 27.710167 26.918739 27.710167 26.28048 27.314453 25.884766 L 23.466797 22.039062 z "
       transform="matrix(0.26458333,0,0,0.26458333,0,288.53332)"
       id="rect834" />
    <path
       style="fill:#ffffff;fill-opacity:1;stroke:none;stroke-width:0.89442748;stroke-linecap:round;stroke-linejoin:round;stroke-miterlimit:4;stroke-dasharray:none;stroke-opacity:1"
       d="M 17.009766 25.546875 A 9.6107159 9.6107159 0 0 1 16 25.611328 A 9.6107159 9.6107159 0 0 1 14.990234 25.554688 L 14.990234 30.990234 C 14.990234 31.549859 15.440376 32 16 32 C 16.559624 32 17.009766 31.549859 17.009766 30.990234 L 17.009766 25.546875 z "
       transform="matrix(0.26458333,0,0,0.26458333,0,288.53332)"
       id="rect836" />
    <path
       style="fill:#ffffff;fill-opacity:1;stroke:none;stroke-width:0.89442748;stroke-linecap:round;stroke-linejoin:round;stroke-miterlimit:4;stroke-dasharray:none;stroke-opacity:1"
       d="M 8.5292969 22.042969 L 4.6855469 25.884766 C 4.2898326 26.28048 4.2898326 26.918739 4.6855469 27.314453 C 5.0812612 27.710167 5.7195201 27.710167 6.1152344 27.314453 L 9.9609375 23.466797 A 9.6107159 9.6107159 0 0 1 8.5292969 22.042969 z "
       transform="matrix(0.26458333,0,0,0.26458333,0,288.53332)"
       id="rect838" />
    <circle
       style="fill:#ffffff;fill-opacity:1;stroke:none;stroke-width:0.27585968;stroke-linecap:round;stroke-linejoin:round;stroke-miterlimit:4;stroke-dasharray:none;stroke-opacity:1"
       id="path836"
       cx="4.2333331"
       cy="292.76666"
       r="0.81729484" />
  </g>
</svg>
