<svg xmlns="http://www.w3.org/2000/svg" width="32" height="32" viewBox="0 0 8.467 8.467">
<path d="M5.065 3.429l-.832.043L3.4 3.43-.496 8.774c.019.033 2.421-.258 4.295-.256l-.448-1.026 1.229-.651-.481-.908-.714.412V4.143l1.908 1.101-.737.425.737 1.391-1.229.651.332.808 4.26.172c.03-.051-2.211-3.28-3.59-5.263z" fill="#fff"/>
<path id="line" d="M3.908-.611c0 .399 0 .797.201.991s.601.183.802.312.2.398-.106.533-.919.135-1.225.289-.306.463-.114.618.576.155.768.265.192.332.192.554" fill="none" stroke="#fff" stroke-width=".565"/>
<style>
#line{
    stroke: red;
    animation: volcano 2s ease forwards;
}
@keyframes volcano{
    0%{stroke-dashoffset: 0;}
    100%{stroke-dashoffset: 1560;}
}
</style>
</svg>